# xmcd
#
# Track frame offsets:
#	150
#	11087
#	22842
#	35145
#	55282
#	67772
#	85687
#	100347
#	118647
#	131522
#	148210
#	162612
#
# Disc length: 2311 seconds
#
# Revision: 1
# Processed by: cddbd v1.5.2PL0 Copyright (c) Steve Scherf et al.
# Submitted via: audiograbber 1.83.01
#
DISCID=a109050c
DTITLE=Keith Bradford - Parterner Keith Bradford
DYEAR=2000
DGENRE=Country
TTITLE0=Destany
TTITLE1=I´m Feeling Fine
TTITLE2=Won´t Settle For Less
TTITLE3=You´ve Gone Away
TTITLE4=Love´s Ghost
TTITLE5=I Wanna Do It With You
TTITLE6=If You´ve Got A Hesrt
TTITLE7=Why Do All The Years Disappear
TTITLE8=Can´t Love Be True
TTITLE9=Belive The Singer
TTITLE10=I Bought The Farm
TTITLE11=Needele In A Heartache
EXTD=
EXTT0=
EXTT1=
EXTT2=
EXTT3=
EXTT4=
EXTT5=
EXTT6=
EXTT7=
EXTT8=
EXTT9=
EXTT10=
EXTT11=
PLAYORDER=
